<svg width="1024" height="1024" viewBox="0 0 1024 1024" fill="none" xmlns="http://www.w3.org/2000/svg">
<rect width="1024" height="1024" fill="black"/>
<defs>
  <linearGradient id="unified_gradient" x1="215" y1="141" x2="883" y2="883" gradientUnits="userSpaceOnUse">
    <stop offset="0%" stop-color="white" stop-opacity="1"/>
    <stop offset="100%" stop-color="white" stop-opacity="0.4"/>
  </linearGradient>
</defs>
<path d="M289.5 178.25C289.5 157.769 272.897 141.167 252.417 141.167C231.936 141.167 215.333 157.769 215.333 178.25V845.75C215.333 866.23 231.936 882.833 252.417 882.833C272.897 882.833 289.5 866.23 289.5 845.75V178.25Z" fill="url(#unified_gradient)"/>
<path d="M512 178.25C512 157.769 495.397 141.167 474.917 141.167C454.436 141.167 437.833 157.769 437.833 178.25V845.75C437.833 866.23 454.436 882.833 474.917 882.833C495.397 882.833 512 866.23 512 845.75V178.25Z" fill="url(#unified_gradient)"/>
<path d="M845.75 252.417H660.333C639.853 252.417 623.25 269.019 623.25 289.5C623.25 309.98 639.853 326.583 660.333 326.583H845.75C866.231 326.583 882.833 309.98 882.833 289.5C882.833 269.019 866.231 252.417 845.75 252.417Z" fill="url(#unified_gradient)"/>
<path d="M771.583 474.917H660.333C639.853 474.917 623.25 491.519 623.25 512C623.25 532.48 639.853 549.083 660.333 549.083H771.583C792.064 549.083 808.667 532.48 808.667 512C808.667 491.519 792.064 474.917 771.583 474.917Z" fill="url(#unified_gradient)"/>
<path d="M845.75 697.417H660.333C639.853 697.417 623.25 714.019 623.25 734.5C623.25 754.98 639.853 771.583 660.333 771.583H845.75C866.231 771.583 882.833 754.98 882.833 734.5C882.833 714.019 866.231 697.417 845.75 697.417Z" fill="url(#unified_gradient)"/>
</svg>
