<svg width="1024" height="1024" viewBox="0 0 1024 1024" fill="none" xmlns="http://www.w3.org/2000/svg">
  <g transform="translate(123, 123) scale(0.8742)">
    <path d="M222.5 111.25C222.5 90.7694 205.897 74.1666 185.417 74.1666C164.936 74.1666 148.333 90.7694 148.333 111.25V778.75C148.333 799.23 164.936 815.833 185.417 815.833C205.897 815.833 222.5 799.23 222.5 778.75V111.25Z" fill="#88D982"/>
    <path d="M445 111.25C445 90.7694 428.397 74.1666 407.917 74.1666C387.436 74.1666 370.833 90.7694 370.833 111.25V778.75C370.833 799.23 387.436 815.833 407.917 815.833C428.397 815.833 445 799.23 445 778.75V111.25Z" fill="#FFB4AC"/>
    <path d="M778.75 185.417H593.333C572.853 185.417 556.25 202.019 556.25 222.5C556.25 242.98 572.853 259.583 593.333 259.583H778.75C799.231 259.583 815.833 242.98 815.833 222.5C815.833 202.019 799.231 185.417 778.75 185.417Z" fill="#A9C7FF"/>
    <path d="M704.583 407.917H593.333C572.853 407.917 556.25 424.519 556.25 445C556.25 465.48 572.853 482.083 593.333 482.083H704.583C725.064 482.083 741.667 465.48 741.667 445C741.667 424.519 725.064 407.917 704.583 407.917Z" fill="#A9C7FF"/>
    <path d="M778.75 630.417H593.333C572.853 630.417 556.25 647.019 556.25 667.5C556.25 687.98 572.853 704.583 593.333 704.583H778.75C799.231 704.583 815.833 687.98 815.833 667.5C815.833 647.019 799.231 630.417 778.75 630.417Z" fill="#A9C7FF"/>
  </g>
</svg>
